{"title":"I Am Number Four 720p BRRip x264 Feel-Free","uid":6370441,"size":2805094257,"categoryP":"video","categoryS":"hd___movies","magnet":"?xt=urn:btih:9f3ca9e4d34ba1387a32579a7df4cdc20ac2a2c1&amp;dn=I+Am+Number+Four+720p+BRRip+x264+Feel-Free&amp;tr=udp%3A%2F%2Ftracker.openbittorrent.com%3A80&amp;tr=udp%3A%2F%2Fopen.demonii.com%3A1337&amp;tr=udp%3A%2F%2Ftracker.coppersurfer.tk%3A6969&amp;tr=udp%3A%2F%2Fexodus.desync.com%3A6969","seeders":0,"leechers":1,"uploader":"qwersd","files":-1,"time":1304665558,"description":"Genre:Action | Sci-Fi | Thriller\nLanguage:English\nIMDb:http://www.imdb.com/title/tt1464540/\nSource:BluRay.x264-TWiZTED\nSubtitles:Romana\n\nFormat : MPEG-4\nFormat profile : Base Media\nCodec ID : isom\nFile size : 2.61 GiB\nDuration : 1h 49mn\nOverall bit rate : 3 405 Kbps\n\nVideo\nFormat profile : &lt;a class=&quot;__cf_email__&quot; href=&quot;/cdn-cgi/l/email-protection&quot; data-cfemail=&quot;a6eecfc1cee6ea928897&quot;&gt;[email&amp;#160;protected]&lt;/a&gt;&lt;script cf-hash='f9e31' type=&quot;text/javascript&quot;&gt;\n/* &lt;![CDATA[ */!function(){try{var t=&quot;currentScript&quot;in document?document.currentScript:function(){for(var t=document.getElementsByTagName(&quot;script&quot;),e=t.length;e--;)if(t[e].getAttribute(&quot;cf-hash&quot;))return t[e]}();if(t&amp;&amp;t.previousSibling){var e,r,n,i,c=t.previousSibling,a=c.getAttribute(&quot;data-cfemail&quot;);if(a){for(e=&quot;&quot;,r=parseInt(a.substr(0,2),16),n=2;a.length-n;n+=2)i=parseInt(a.substr(n,2),16)^r,e+=String.fromCharCode(i);e=document.createTextNode(e),c.parentNode.replaceChild(e,c)}}}catch(u){}}();/* ]]&gt; */&lt;/script&gt;\nFormat settings, CABAC : Yes\nFormat settings, ReFrames : 3 frames\nFormat settings, GOP : M=1, N=24\nCodec ID : avc1\nCodec ID/Info : Advanced Video Coding\nDuration : 1h 49mn\nBit rate mode : Variable\nBit rate : 3 000 Kbps\nMaximum bit rate : 15.3 Mbps\nWidth : 1 280 pixels\nHeight : 688 pixels\nDisplay aspect ratio : 1.860\nFrame rate mode : Constant\nFrame rate : 23.976 fps\nColor space : YUV\nChroma subsampling : 4:2:0\nBit depth : 8 bits\nScan type : Progressive\nBits/(Pixel*Frame) : 0.142\nStream size : 2.26 GiB (87%)\nWriting library : x264 \n\nAudio\nID : 2\nFormat : AAC\nFormat/Info : Advanced Audio Codec\nFormat version : Version 4\nFormat profile : LC\nFormat settings, SBR : No\nCodec ID : 40\nDuration : 1h 49mn\nBit rate mode : Variable\nBit rate : 445 Kbps\nMaximum bit rate : 541 Kbps\nChannel(s) : 6 channels\nChannel positions : Front: L C R, Side: L R, LFE\nSampling rate : 48.0 KHz\nStream size : 349 MiB (13%)\n\n\nPlot:\nJohn is an extraordinary teen, masking his true identity and passing as a typical high school student to elude a deadly enemy seeking to destroy him. Three like him have already been killed ... he is Number Four.\n\nScreens:\n &lt;a href=&quot;\nhttp://shareimage.org/images/4m21vxejo8ng7lrdbn5.png&quot; rel=&quot;nofollow&quot; target=&quot;_NEW&quot;&gt;\nhttp://shareimage.org/images/4m21vxejo8ng7lrdbn5.png&lt;/a&gt; &lt;a href=&quot;\nhttp://shareimage.org/images/hgbd6rx04d05nysg3nm.png&quot; rel=&quot;nofollow&quot; target=&quot;_NEW&quot;&gt;\nhttp://shareimage.org/images/hgbd6rx04d05nysg3nm.png&lt;/a&gt; &lt;a href=&quot;\nhttp://shareimage.org/images/ehtgukq6mhwq3yy1a9s.png&quot; rel=&quot;nofollow&quot; target=&quot;_NEW&quot;&gt;\nhttp://shareimage.org/images/ehtgukq6mhwq3yy1a9s.png&lt;/a&gt; &lt;a href=&quot;\nhttp://shareimage.org/images/chuqrkhyi5fovx2qb60e.png&quot; rel=&quot;nofollow&quot; target=&quot;_NEW&quot;&gt;\nhttp://shareimage.org/images/chuqrkhyi5fovx2qb60e.png&lt;/a&gt; &lt;a href=&quot;\nhttp://shareimage.org/images/k9t6e2z81z294v9hbcv.png&quot; rel=&quot;nofollow&quot; target=&quot;_NEW&quot;&gt;\nhttp://shareimage.org/images/k9t6e2z81z294v9hbcv.png&lt;/a&gt;\n\nGreets:\n\nINK,CRYS,IMAGINE,LKRG,FXG,3Li,FLAWL3SS,TA,iLLUSiON,ViSiON,DTRG SAFCuk009,LU,TheFalcon007,MYSTiC,PrisM,Noir,WBZ,LAP,Rx,Kingdom,SAFCuk009+Fabreezy,HDLiTE,TWiZTED,ExtraTorrentRG.ELEKTRI4KA,MAGNAT,CM8\nAnd to all the other p2p grps past and present.","torrent":{"xt":"urn:btih:9f3ca9e4d34ba1387a32579a7df4cdc20ac2a2c1","amp;dn":"I+Am+Number+Four+720p+BRRip+x264+Feel-Free","amp;tr":["udp%3A%2F%2Ftracker.openbittorrent.com%3A80","udp%3A%2F%2Fopen.demonii.com%3A1337","udp%3A%2F%2Ftracker.coppersurfer.tk%3A6969","udp%3A%2F%2Fexodus.desync.com%3A6969"],"infoHash":"9f3ca9e4d34ba1387a32579a7df4cdc20ac2a2c1","infoHashBuffer":{"type":"Buffer","data":[159,60,169,228,211,75,161,56,122,50,87,154,125,244,205,194,10,194,162,193]},"announce":[],"urlList":[]}}